<svg width="626" height="232" viewBox="0 0 626 232" fill="none" xmlns="http://www.w3.org/2000/svg">
<path d="M370.766 41.0316L330.782 144.412H431.205L390.996 41.0316H370.766ZM358.206 123.479L381.457 65.3696L402.84 123.479H358.206Z" fill="white"/>
<path d="M143.209 41.0316H122.979L82.995 144.412H183.419L143.196 41.0316H143.209ZM133.671 65.3829L155.054 123.492H110.419L133.671 65.3829Z" fill="white"/>
<path d="M159.253 0H138.096L128.331 26.3254L149.264 26.1002L159.253 0Z" fill="white"/>
<path d="M247.356 41.0316H188.771V59.0235H207.61V144.412H228.291V59.0235H247.356V41.0316Z" fill="white"/>
<path d="M286.876 41.0316H267.586V144.425H315.241L322.21 123.479H286.876V41.0316Z" fill="white"/>
<path d="M503.476 109.687C500.853 99.1276 489.91 89.562 480.463 81.9307C473.481 76.2867 454.152 62.2164 466.513 56.5724C477.323 51.6306 487.432 66.1116 487.432 66.1116L501.555 53.1807C501.555 53.1807 488.479 36.8317 472.435 37.0039C456.391 37.1762 442.44 48.9146 442.44 63.2101C442.44 77.5056 455.516 86.3558 464.406 94.0136C473.296 101.671 485.856 109.846 483.762 118.02C481.669 126.195 468.42 128.58 462.843 123.134C457.265 117.689 454.814 112.244 454.814 112.244L437.737 121.77C437.737 121.77 445.925 145.777 473.296 144.412C500.667 143.047 506.073 120.246 503.463 109.687" fill="white"/>
<path d="M16.7258 194.042C15.6659 194.135 14.6856 194.214 13.8376 194.281C14.8048 194.201 15.7852 194.122 16.7258 194.042Z" fill="white"/>
<path d="M624.461 224.541C601.541 222.938 578.515 222.673 561.504 218.817C555.768 218.42 567.612 213.889 562.074 210.828C556.337 210.365 544.811 209.848 539.061 209.49C533.576 205.184 545.354 201.819 539.856 197.513C534.345 193.207 511.094 194.599 505.476 191.618C488.28 188.001 517.268 188.266 534.61 189.206C529.006 186.225 546.176 189.842 546.361 187.179C546.719 181.853 547.103 176.527 524.13 171.267C518.407 169.611 524.461 165.941 524.62 163.278C454.814 159.436 279.152 163.331 263.466 163.424C247.78 163.676 231.709 163.636 215.652 163.623C199.595 163.795 183.551 163.901 167.931 164.484C152.311 165.186 137.102 166.008 122.727 167.783C114.023 168.856 102.338 168.273 91.3812 168.538C80.4379 168.803 70.2498 169.638 64.659 173.334L82.1072 172.367C73.509 174.818 64.7915 175.295 56.0342 175.547C47.2902 175.746 38.4932 175.666 29.8022 176.991C30.0274 179.654 30.1334 180.979 24.4365 182.728C30.2526 182.317 37.4863 181.429 44.7332 180.767C51.9801 180.144 59.2403 179.68 65.0962 179.972L61.996 183.947C56.2462 184.98 52.3511 185.112 45.0777 185.245C37.8042 185.404 30.5176 185.629 24.781 186.702C24.9002 188.04 25.1387 190.69 25.2579 192.028C25.3507 193.115 21.3761 193.631 16.7126 194.042C22.8732 193.539 32.0147 192.863 36.9299 192.519C37.0358 193.843 37.2611 196.506 37.3671 197.831C37.473 199.169 31.7232 199.58 25.9601 200.004C26.1853 202.654 20.6872 205.754 26.543 206.642C32.2929 206.218 38.0162 205.807 43.7528 205.396C20.8727 208.351 10.1414 216.022 10.5786 219.997C16.1032 218.182 16.5139 222.183 22.0385 220.381C5.14669 225.733 -9.99634 232.662 11.7842 231.934C36.3469 230.331 61.4131 229.032 86.4925 227.959C111.585 226.82 136.81 225.945 162.088 225.177C212.645 223.667 263.466 222.805 314.327 222.501C416.036 222.249 517.904 224.528 618.142 230.768C629.708 230.238 624.223 227.204 624.435 224.514L624.461 224.541ZM145.515 185.258H135.115V189.63H145.342V199.448H135.115V214.339H122.82V174.911H145.515V185.258ZM191.076 214.339H167.971V174.911H190.665V185.258H180.265V189.63H190.493V199.448H180.265V204.005H191.063V214.353L191.076 214.339ZM236.466 207.755C235.922 209.278 235.088 210.59 233.948 211.716C232.809 212.842 231.365 213.73 229.59 214.379C227.814 215.028 225.721 215.36 223.297 215.36C221.839 215.36 220.475 215.293 219.229 215.148C217.984 215.015 216.871 214.843 215.904 214.644C214.791 214.445 213.771 214.207 212.843 213.929V202.111C213.691 202.389 214.579 202.601 215.506 202.76C216.275 202.959 217.149 203.118 218.13 203.237C219.11 203.356 220.104 203.409 221.097 203.409C222.873 203.409 223.76 202.733 223.76 201.395C223.76 200.879 223.495 200.362 222.952 199.832C222.409 199.302 221.733 198.706 220.899 198.057C220.064 197.407 219.189 196.692 218.236 195.897C217.295 195.115 216.407 194.201 215.573 193.181C214.738 192.161 214.062 191.008 213.519 189.723C212.976 188.438 212.711 186.981 212.711 185.324C212.711 183.47 213.042 181.84 213.691 180.422C214.341 179.005 215.255 177.826 216.407 176.872C217.56 175.931 218.925 175.202 220.475 174.712C222.038 174.222 223.694 173.97 225.469 173.97C226.397 173.97 227.311 174.023 228.238 174.116C229.166 174.209 229.987 174.301 230.716 174.381C231.564 174.5 232.385 174.619 233.193 174.739V185.788C232.888 185.748 232.544 185.709 232.16 185.669C231.855 185.629 231.511 185.589 231.126 185.55C230.742 185.51 230.331 185.483 229.908 185.483C229.682 185.483 229.391 185.483 229.046 185.51C228.702 185.536 228.371 185.576 228.066 185.656C227.761 185.735 227.483 185.868 227.258 186.066C227.033 186.265 226.913 186.543 226.913 186.901C226.913 187.219 227.178 187.616 227.695 188.08C228.212 188.557 228.848 189.1 229.603 189.736C230.358 190.372 231.179 191.101 232.08 191.922C232.981 192.757 233.816 193.698 234.558 194.758C235.313 195.818 235.949 197.023 236.466 198.361C236.982 199.699 237.247 201.197 237.247 202.853C237.247 204.509 236.982 206.218 236.439 207.728L236.466 207.755ZM284.107 185.271H277.006V214.353H264.301V185.271H257.199V174.924H284.107V185.271ZM318.527 214.353H305.477V174.924H318.527V214.353ZM363.744 214.353H353.755L338.744 174.924H352.204L358.736 192.068L365.32 174.924H378.781L363.77 214.353H363.744ZM415.135 214.353L413.863 210.802H402.204L400.932 214.353H388.81L403.423 174.924H412.657L427.27 214.353H415.148H415.135ZM470.924 214.353H447.474V174.924H460.299V204.005H470.924V214.353Z" fill="white"/>
<path d="M405.424 202.097H410.617L408.02 195.182L405.424 202.097Z" fill="white"/>
</svg>
