<svg width="442" height="164" viewBox="0 0 442 164" fill="none" xmlns="http://www.w3.org/2000/svg">
<path d="M101.411 29.0051H87.127L58.8951 102.084H129.802L101.402 29.0051H101.411ZM94.6761 46.2189L109.774 87.2962H78.259L94.6761 46.2189Z" fill="#384698"/>
<path d="M262.085 29.0051L233.853 102.084H304.76L276.369 29.0051H262.085ZM253.217 87.2868L269.634 46.2096L284.732 87.2868H253.217Z" fill="#384698"/>
<path d="M112.74 0H97.8006L90.9063 18.6093L105.686 18.4501L112.74 0Z" fill="#384698"/>
<path d="M174.947 29.0051H133.582V41.7235H146.884V102.084H161.486V41.7235H174.947V29.0051Z" fill="#384698"/>
<path d="M202.852 29.0051H189.232V102.094H222.88L227.8 87.2868H202.852V29.0051Z" fill="#384698"/>
<path d="M355.789 77.5373C353.937 70.073 346.21 63.3111 339.54 57.9165C334.61 53.9268 320.962 43.9806 329.69 39.9909C337.323 36.4975 344.461 46.7341 344.461 46.7341L354.432 37.5933C354.432 37.5933 345.2 26.0362 333.871 26.158C322.543 26.2797 312.693 34.5776 312.693 44.683C312.693 54.7884 321.925 61.0446 328.202 66.4579C334.479 71.8712 343.347 77.6497 341.869 83.4282C340.391 89.2068 331.037 90.8926 327.099 87.0433C323.16 83.1941 321.43 79.3449 321.43 79.3449L309.372 86.0787C309.372 86.0787 315.153 103.049 334.479 102.084C353.806 101.12 357.622 85.0017 355.779 77.5373" fill="#384698"/>
<path d="M12.1038 137.168C11.3554 137.233 10.6632 137.289 10.0645 137.336C10.7474 137.28 11.4396 137.224 12.1038 137.168Z" fill="#384698"/>
<path d="M441.214 158.727C425.031 157.594 408.773 157.407 396.762 154.681C392.711 154.4 401.074 151.197 397.164 149.034C393.113 148.706 384.975 148.341 380.915 148.088C377.042 145.044 385.358 142.665 381.476 139.622C377.585 136.578 361.168 137.561 357.201 135.454C345.059 132.897 365.527 133.084 377.772 133.749C373.815 131.642 385.938 134.199 386.069 132.316C386.322 128.551 386.593 124.786 370.372 121.068C366.331 119.898 370.606 117.303 370.719 115.421C321.43 112.705 197.398 115.458 186.322 115.524C175.247 115.702 163.9 115.674 152.562 115.664C141.224 115.786 129.896 115.861 118.867 116.273C107.838 116.77 97.0989 117.35 86.9493 118.605C80.8034 119.364 72.5527 118.952 64.8165 119.139C57.0897 119.326 49.896 119.916 45.9484 122.529L58.2683 121.846C52.1973 123.578 46.042 123.915 39.8587 124.093C33.6847 124.234 27.4733 124.178 21.3367 125.114C21.4957 126.997 21.5706 127.933 17.5481 129.17C21.6548 128.879 26.7623 128.252 31.8792 127.783C36.9962 127.343 42.1224 127.015 46.2571 127.222L44.0682 130.031C40.0083 130.762 37.2581 130.855 32.1225 130.949C26.9868 131.061 21.8419 131.221 17.7913 131.979C17.8755 132.925 18.0439 134.798 18.1281 135.744C18.1936 136.512 15.3872 136.877 12.0944 137.168C16.4443 136.812 22.8989 136.334 26.3694 136.091C26.4443 137.027 26.6033 138.91 26.6781 139.846C26.753 140.792 22.6931 141.083 18.6239 141.382C18.7829 143.255 14.9008 145.447 19.0355 146.074C23.0954 145.775 27.1365 145.484 31.187 145.194C15.0318 147.283 7.45461 152.705 7.76331 155.515C11.6641 154.232 11.9541 157.06 15.855 155.786C3.92796 159.57 -6.76426 164.468 8.61457 163.953C25.9578 162.82 43.6566 161.902 61.3647 161.144C79.0821 160.338 96.8931 159.72 114.742 159.177C150.438 158.109 186.322 157.5 222.234 157.285C294.049 157.107 365.976 158.718 436.752 163.129C444.919 162.754 441.046 160.61 441.195 158.708L441.214 158.727ZM103.039 130.958H95.6958V134.049H102.917V140.989H95.6958V151.516H87.0148V123.644H103.039V130.958ZM135.209 151.516H118.895V123.644H134.919V130.958H127.576V134.049H134.798V140.989H127.576V144.211H135.2V151.525L135.209 151.516ZM167.258 146.861C166.874 147.938 166.285 148.865 165.48 149.661C164.676 150.457 163.656 151.085 162.403 151.544C161.149 152.003 159.671 152.237 157.959 152.237C156.93 152.237 155.967 152.19 155.088 152.087C154.208 151.993 153.423 151.872 152.74 151.731C151.954 151.591 151.234 151.422 150.579 151.225V142.871C151.177 143.068 151.804 143.218 152.459 143.33C153.002 143.471 153.619 143.583 154.311 143.667C155.003 143.752 155.705 143.789 156.407 143.789C157.66 143.789 158.287 143.312 158.287 142.366C158.287 142 158.1 141.635 157.716 141.26C157.333 140.886 156.856 140.464 156.266 140.005C155.677 139.547 155.06 139.041 154.386 138.479C153.722 137.926 153.095 137.28 152.506 136.559C151.916 135.838 151.439 135.023 151.056 134.115C150.672 133.206 150.485 132.176 150.485 131.005C150.485 129.694 150.719 128.542 151.177 127.54C151.636 126.538 152.281 125.704 153.095 125.03C153.909 124.365 154.872 123.85 155.967 123.503C157.071 123.157 158.24 122.979 159.494 122.979C160.148 122.979 160.794 123.016 161.449 123.082C162.103 123.148 162.683 123.213 163.198 123.269C163.797 123.354 164.377 123.438 164.947 123.522V131.333C164.732 131.305 164.489 131.277 164.218 131.249C164.002 131.221 163.759 131.193 163.488 131.164C163.217 131.136 162.927 131.118 162.627 131.118C162.468 131.118 162.263 131.118 162.019 131.136C161.776 131.155 161.542 131.183 161.327 131.239C161.112 131.296 160.915 131.389 160.756 131.53C160.597 131.67 160.513 131.867 160.513 132.12C160.513 132.344 160.7 132.625 161.065 132.953C161.43 133.29 161.879 133.674 162.412 134.124C162.945 134.573 163.525 135.089 164.161 135.669C164.798 136.259 165.387 136.924 165.911 137.673C166.444 138.423 166.893 139.275 167.258 140.221C167.623 141.167 167.81 142.225 167.81 143.396C167.81 144.567 167.623 145.775 167.239 146.842L167.258 146.861ZM200.897 130.968H195.883V151.525H186.912V130.968H181.898V123.653H200.897V130.968ZM225.2 151.525H215.986V123.653H225.2V151.525ZM257.127 151.525H250.073L239.475 123.653H248.979L253.591 135.772L258.24 123.653H267.744L257.145 151.525H257.127ZM293.413 151.525L292.515 149.015H284.283L283.385 151.525H274.825L285.143 123.653H291.664L301.982 151.525H293.422H293.413ZM332.805 151.525H316.247V123.653H325.302V144.211H332.805V151.525Z" fill="#384698"/>
<path d="M286.556 142.862H290.223L288.39 137.973L286.556 142.862Z" fill="#384698"/>
</svg>
